<svg width="800" height="203" viewBox="0 0 800 203" fill="none" xmlns="http://www.w3.org/2000/svg">
<g clip-path="url(#clip0_119_12318)">
<rect width="800" height="203" fill="#374CBE"/>
<path opacity="0.25" d="M398.65 109.235C256.047 109.235 100.309 22.3953 -32.5532 -19.8427V174.157H830.655V-19.8431C685.615 18.2201 576.903 109.235 398.65 109.235Z" fill="#161616"/>
<path opacity="0.5" d="M398.65 121.282C256.047 121.282 100.309 34.4429 -32.5532 -7.79509V186.204H830.655V-7.79553C685.615 30.2677 576.903 121.282 398.65 121.282Z" fill="#161616"/>
<path opacity="0.75" d="M398.65 131.913C256.047 131.913 100.309 45.0734 -32.5532 2.83541V196.835H830.655V2.83496C685.615 40.8982 576.903 131.913 398.65 131.913Z" fill="#161616"/>
<path d="M398.65 141.834C256.047 141.834 100.309 54.9949 -32.5532 12.7569V206.756H830.655V12.7565C685.615 50.8197 576.903 141.834 398.65 141.834Z" fill="#161616"/>
</g>
<defs>
<clipPath id="clip0_119_12318">
<rect width="800" height="203" fill="white"/>
</clipPath>
</defs>
</svg>
