<svg width="18" height="18" viewBox="0 0 18 18" fill="none" xmlns="http://www.w3.org/2000/svg">
<path d="M17.9579 12.325C18.1619 11.839 17.5789 11.425 17.0899 11.641C16.1125 12.0701 15.0564 12.2908 13.989 12.289C9.80397 12.289 6.41198 8.96503 6.41198 4.86404C6.41045 3.47939 6.80383 2.12302 7.54597 0.954056C7.82997 0.506058 7.48898 -0.113941 6.96898 0.018059C2.95999 1.04106 0 4.61304 0 8.86203C0 13.909 4.17499 18 9.32597 18C13.226 18 16.5659 15.655 17.9579 12.325Z" fill="#DADADA"/>
<path d="M12.6105 0.102793C12.0805 -0.251206 11.4485 0.380792 11.8015 0.910791L12.4315 1.85579C12.6871 2.23895 12.8235 2.68921 12.8235 3.14978C12.8235 3.61036 12.6871 4.06062 12.4315 4.44378L11.8015 5.38878C11.4485 5.91877 12.0815 6.55077 12.6115 6.19677L13.5555 5.56678C13.9387 5.31121 14.3889 5.17483 14.8495 5.17483C15.3101 5.17483 15.7603 5.31121 16.1435 5.56678L17.0885 6.19677C17.6185 6.55077 18.2505 5.91877 17.8965 5.38878L17.2665 4.44378C17.0109 4.06062 16.8746 3.61036 16.8746 3.14978C16.8746 2.68921 17.0109 2.23895 17.2665 1.85579L17.8965 0.910791C18.2505 0.380792 17.6185 -0.251206 17.0875 0.102793L16.1435 0.732791C15.7603 0.988358 15.3101 1.12474 14.8495 1.12474C14.3889 1.12474 13.9387 0.988358 13.5555 0.732791L12.6105 0.102793Z" fill="#DADADA"/>
</svg>
