<svg width="24" height="16" viewBox="0 0 24 16" fill="none" xmlns="http://www.w3.org/2000/svg">
<path fill-rule="evenodd" clip-rule="evenodd" d="M4.52002 1.65928C4.52002 0.900103 5.13545 0.284668 5.89463 0.284668H22.39C23.1492 0.284668 23.7646 0.900103 23.7646 1.65928C23.7646 2.41846 23.1492 3.03389 22.39 3.03389H5.89463C5.13545 3.03389 4.52002 2.41846 4.52002 1.65928ZM4.52002 8.07414C4.52002 7.31496 5.13545 6.69953 5.89463 6.69953H22.39C23.1492 6.69953 23.7646 7.31496 23.7646 8.07414C23.7646 8.83332 23.1492 9.44876 22.39 9.44876H5.89463C5.13545 9.44876 4.52002 8.83332 4.52002 8.07414ZM4.52002 14.489C4.52002 13.7298 5.13545 13.1144 5.89463 13.1144H22.39C23.1492 13.1144 23.7646 13.7298 23.7646 14.489C23.7646 15.2482 23.1492 15.8636 22.39 15.8636H5.89463C5.13545 15.8636 4.52002 15.2482 4.52002 14.489Z" fill="#DADADA"/>
<path fill-rule="evenodd" clip-rule="evenodd" d="M0 1.65944C0 0.742958 0.742958 0 1.65944 0C2.57593 0 3.31889 0.742958 3.31889 1.65944C3.31889 2.57593 2.57593 3.31889 1.65944 3.31889C0.742958 3.31889 0 2.57593 0 1.65944Z" fill="#DADADA"/>
<path fill-rule="evenodd" clip-rule="evenodd" d="M0.0742188 8.0744C0.0742188 7.19895 0.78391 6.48926 1.65936 6.48926C2.53481 6.48926 3.2445 7.19895 3.2445 8.0744C3.2445 8.94985 2.53481 9.65954 1.65936 9.65954C0.78391 9.65954 0.0742188 8.94985 0.0742188 8.0744Z" fill="#DADADA"/>
<path fill-rule="evenodd" clip-rule="evenodd" d="M0.148926 14.4894C0.148926 13.6549 0.82535 12.9785 1.65976 12.9785C2.49417 12.9785 3.1706 13.6549 3.1706 14.4894C3.1706 15.3238 2.49417 16.0002 1.65976 16.0002C0.82535 16.0002 0.148926 15.3238 0.148926 14.4894Z" fill="#DADADA"/>
</svg>
