<svg width="18" height="18" viewBox="0 0 18 18" fill="none" xmlns="http://www.w3.org/2000/svg">
<path fill-rule="evenodd" clip-rule="evenodd" d="M11.2505 4.5H17.2505C17.6652 4.5 18.0005 4.164 18.0005 3.75V0.75C18.0005 0.336 17.6652 0 17.2505 0H11.2505C10.8357 0 10.5005 0.336 10.5005 0.75V1.5H7.50049V0.75C7.50049 0.336 7.16524 0 6.75049 0H0.750488C0.335738 0 0.000488281 0.336 0.000488281 0.75V3.75C0.000488281 4.164 0.335738 4.5 0.750488 4.5H6.75049C7.16524 4.5 7.50049 4.164 7.50049 3.75V3H8.25049V6H7.50049C7.08574 6 6.75049 6.336 6.75049 6.75V11.25C6.75049 11.664 7.08574 12 7.50049 12H8.25049V15H7.50049V14.25C7.50049 13.836 7.16524 13.5 6.75049 13.5H0.750488C0.335738 13.5 0.000488281 13.836 0.000488281 14.25V17.25C0.000488281 17.664 0.335738 18 0.750488 18H6.75049C7.16524 18 7.50049 17.664 7.50049 17.25V16.5H10.5005V17.25C10.5005 17.664 10.8357 18 11.2505 18H17.2505C17.6652 18 18.0005 17.664 18.0005 17.25V14.25C18.0005 13.836 17.6652 13.5 17.2505 13.5H11.2505C10.8357 13.5 10.5005 13.836 10.5005 14.25V15H9.75049V12H10.5005C10.9152 12 11.2505 11.664 11.2505 11.25V6.75C11.2505 6.336 10.9152 6 10.5005 6H9.75049V3H10.5005V3.75C10.5005 4.164 10.8357 4.5 11.2505 4.5Z" fill="#DADADA"/>
</svg>
