<svg width="12" height="13" viewBox="0 0 12 13" fill="none" xmlns="http://www.w3.org/2000/svg">
<path d="M6 8.5C6.53043 8.5 7.03914 8.28929 7.41421 7.91421C7.78929 7.53914 8 7.03043 8 6.5C8 5.96957 7.78929 5.46086 7.41421 5.08579C7.03914 4.71071 6.53043 4.5 6 4.5C5.46957 4.5 4.96086 4.71071 4.58579 5.08579C4.21071 5.46086 4 5.96957 4 6.5C4 7.03043 4.21071 7.53914 4.58579 7.91421C4.96086 8.28929 5.46957 8.5 6 8.5ZM5.5 2.53V1C5.5 0.867392 5.55268 0.740215 5.64645 0.646447C5.74021 0.552678 5.86739 0.5 6 0.5C6.13261 0.5 6.25979 0.552678 6.35355 0.646447C6.44732 0.740215 6.5 0.867392 6.5 1V2.53C7.38135 2.64134 8.20059 3.04276 8.82866 3.67101C9.45673 4.29926 9.85791 5.11862 9.969 6H11.5C11.6326 6 11.7598 6.05268 11.8536 6.14645C11.9473 6.24021 12 6.36739 12 6.5C12 6.63261 11.9473 6.75979 11.8536 6.85355C11.7598 6.94732 11.6326 7 11.5 7H9.969C9.85787 7.88153 9.45654 8.701 8.82827 9.32927C8.2 9.95754 7.38053 10.3589 6.499 10.47L6.5 10.5V12C6.5 12.1326 6.44732 12.2598 6.35355 12.3536C6.25979 12.4473 6.13261 12.5 6 12.5C5.86739 12.5 5.74021 12.4473 5.64645 12.3536C5.55268 12.2598 5.5 12.1326 5.5 12V10.47C4.61847 10.3589 3.799 9.95754 3.17073 9.32927C2.54246 8.701 2.14113 7.88153 2.03 7C2.02 7.0003 2.01 7.0003 2 7H0.5C0.367392 7 0.240215 6.94732 0.146447 6.85355C0.0526784 6.75979 0 6.63261 0 6.5C0 6.36739 0.0526784 6.24021 0.146447 6.14645C0.240215 6.05268 0.367392 6 0.5 6H2C2.01 5.9997 2.02 5.9997 2.03 6C2.14155 5.11884 2.54306 4.29982 3.17129 3.67195C3.79952 3.04408 4.61877 2.64304 5.5 2.532M3 6.5C3 7.29565 3.31607 8.05871 3.87868 8.62132C4.44129 9.18393 5.20435 9.5 6 9.5C6.79565 9.5 7.55871 9.18393 8.12132 8.62132C8.68393 8.05871 9 7.29565 9 6.5C9 5.70435 8.68393 4.94129 8.12132 4.37868C7.55871 3.81607 6.79565 3.5 6 3.5C5.20435 3.5 4.44129 3.81607 3.87868 4.37868C3.31607 4.94129 3 5.70435 3 6.5Z" fill="#E07F0D"/>
</svg>
