<svg width="18" height="18" viewBox="0 0 18 18" fill="none" xmlns="http://www.w3.org/2000/svg">
<g clip-path="url(#clip0_184_3410)">
<path d="M17.707 10.875C17.707 10.9141 17.7031 10.9414 17.6953 10.957C17.1953 13.0508 16.1484 14.748 14.5547 16.0488C12.9609 17.3496 11.0938 18 8.95312 18C7.8125 18 6.70898 17.7852 5.64258 17.3555C4.57617 16.9258 3.625 16.3125 2.78906 15.5156L1.27734 17.0273C1.12891 17.1758 0.953125 17.25 0.75 17.25C0.546875 17.25 0.371094 17.1758 0.222656 17.0273C0.0742187 16.8789 0 16.7031 0 16.5V11.25C0 11.0469 0.0742187 10.8711 0.222656 10.7227C0.371094 10.5742 0.546875 10.5 0.75 10.5H6C6.20313 10.5 6.37891 10.5742 6.52734 10.7227C6.67578 10.8711 6.75 11.0469 6.75 11.25C6.75 11.4531 6.67578 11.6289 6.52734 11.7773L4.92188 13.3828C5.47656 13.8984 6.10547 14.2969 6.80859 14.5781C7.51172 14.8594 8.24219 15 9 15C10.0469 15 11.0234 14.7461 11.9297 14.2383C12.8359 13.7305 13.5625 13.0312 14.1094 12.1406C14.1953 12.0078 14.4023 11.5508 14.7305 10.7695C14.793 10.5898 14.9102 10.5 15.082 10.5H17.332C17.4336 10.5 17.5215 10.5371 17.5957 10.6113C17.6699 10.6855 17.707 10.7734 17.707 10.875ZM18 1.5V6.75C18 6.95313 17.9258 7.12891 17.7773 7.27734C17.6289 7.42578 17.4531 7.5 17.25 7.5H12C11.7969 7.5 11.6211 7.42578 11.4727 7.27734C11.3242 7.12891 11.25 6.95313 11.25 6.75C11.25 6.54687 11.3242 6.37109 11.4727 6.22266L13.0898 4.60547C11.9336 3.53516 10.5703 3 9 3C7.95312 3 6.97656 3.25391 6.07031 3.76172C5.16406 4.26953 4.4375 4.96875 3.89062 5.85938C3.80469 5.99219 3.59766 6.44922 3.26953 7.23047C3.20703 7.41016 3.08984 7.5 2.91797 7.5H0.585938C0.484375 7.5 0.396484 7.46289 0.322266 7.38867C0.248047 7.31445 0.210938 7.22656 0.210938 7.125V7.04297C0.71875 4.94922 1.77344 3.25195 3.375 1.95117C4.97656 0.650391 6.85156 0 9 0C10.1406 0 11.25 0.216797 12.3281 0.650391C13.4062 1.08398 14.3633 1.69531 15.1992 2.48438L16.7227 0.972656C16.8711 0.824219 17.0469 0.75 17.25 0.75C17.4531 0.75 17.6289 0.824219 17.7773 0.972656C17.9258 1.12109 18 1.29687 18 1.5Z" fill="#DADADA"/>
</g>
<defs>
<clipPath id="clip0_184_3410">
<rect width="18" height="18" fill="white"/>
</clipPath>
</defs>
</svg>
