<svg width="17" height="17" viewBox="0 0 17 17" fill="none" xmlns="http://www.w3.org/2000/svg">
<path d="M15.9137 14.4944L12.5132 11.0939C13.3319 10.0041 13.7738 8.67749 13.7724 7.3144C13.7724 3.83266 10.9397 1 7.45795 1C3.97622 1 1.14355 3.83266 1.14355 7.3144C1.14355 10.7961 3.97622 13.6288 7.45795 13.6288C8.82104 13.6303 10.1476 13.1883 11.2375 12.3697L14.6379 15.7701C14.81 15.924 15.0345 16.0061 15.2653 15.9996C15.4961 15.9932 15.7157 15.8986 15.8789 15.7354C16.0422 15.5721 16.1367 15.3526 16.1432 15.1218C16.1497 14.891 16.0675 14.6665 15.9137 14.4944ZM2.94767 7.3144C2.94767 6.42235 3.21219 5.55033 3.70779 4.80862C4.20339 4.06691 4.9078 3.48881 5.73194 3.14744C6.55609 2.80607 7.46296 2.71675 8.33787 2.89078C9.21278 3.06481 10.0164 3.49437 10.6472 4.12515C11.278 4.75592 11.7075 5.55958 11.8816 6.43449C12.0556 7.3094 11.9663 8.21626 11.6249 9.04041C11.2835 9.86456 10.7054 10.569 9.96373 11.0646C9.22202 11.5602 8.35 11.8247 7.45795 11.8247C6.26219 11.8232 5.11582 11.3476 4.27029 10.5021C3.42475 9.65654 2.9491 8.51016 2.94767 7.3144Z" fill="#DADADA" stroke="#DADADA"/>
</svg>
