<svg width="18" height="18" viewBox="0 0 18 18" fill="none" xmlns="http://www.w3.org/2000/svg">
<path fill-rule="evenodd" clip-rule="evenodd" d="M10.6011 0.1368C10.2681 -4.02331e-08 9.84509 0 8.99999 0C8.15489 0 7.73279 -4.02331e-08 7.39889 0.1368C6.9556 0.31879 6.60273 0.669389 6.41789 1.1115C6.33329 1.3122 6.30089 1.5471 6.28739 1.8882C6.28139 2.13534 6.21245 2.37687 6.08709 2.58995C5.96174 2.80302 5.7841 2.9806 5.57099 3.1059C5.35386 3.22659 5.10978 3.29053 4.86136 3.29179C4.61295 3.29305 4.36823 3.23159 4.14989 3.1131C3.84569 2.9529 3.62519 2.8647 3.40739 2.8359C2.93089 2.77334 2.44896 2.90142 2.06639 3.1923C1.78019 3.4101 1.56869 3.7737 1.14659 4.5C0.723591 5.2263 0.512991 5.589 0.465291 5.9445C0.402291 6.4179 0.531891 6.8967 0.825291 7.2756C0.958491 7.4484 1.14659 7.5933 1.43729 7.7751C1.86659 8.0424 2.14199 8.4978 2.14199 9C2.14199 9.5022 1.86659 9.9576 1.43819 10.224C1.14659 10.4067 0.958491 10.5516 0.824391 10.7244C0.679565 10.9115 0.573263 11.1255 0.511627 11.354C0.44999 11.5825 0.434242 11.8209 0.465291 12.0555C0.512991 12.4101 0.723591 12.7737 1.14659 13.5C1.56959 14.2263 1.78019 14.589 2.06639 14.8077C2.44799 15.0984 2.93039 15.2262 3.40739 15.1641C3.62519 15.1353 3.84569 15.0471 4.14989 14.8869C4.36834 14.7683 4.61323 14.7067 4.86182 14.708C5.11041 14.7092 5.35465 14.7732 5.57189 14.8941C6.00929 15.1461 6.26849 15.6096 6.28739 16.1118C6.30089 16.4538 6.33329 16.6878 6.41789 16.8885C6.60149 17.3295 6.95429 17.6805 7.39889 17.8632C7.73189 18 8.15489 18 8.99999 18C9.84509 18 10.2681 18 10.6011 17.8632C11.0444 17.6812 11.3972 17.3306 11.5821 16.8885C11.6667 16.6878 11.6991 16.4538 11.7126 16.1118C11.7306 15.6096 11.9907 15.1452 12.429 14.8941C12.6461 14.7734 12.8902 14.7095 13.1386 14.7082C13.387 14.707 13.6317 14.7684 13.8501 14.8869C14.1543 15.0471 14.3748 15.1353 14.5926 15.1641C15.0696 15.2271 15.552 15.0984 15.9336 14.8077C16.2198 14.5899 16.4313 14.2263 16.8534 13.5C17.2764 12.7737 17.487 12.411 17.5347 12.0555C17.5656 11.8208 17.5497 11.5824 17.4879 11.3539C17.4261 11.1254 17.3197 10.9115 17.1747 10.7244C17.0415 10.5516 16.8534 10.4067 16.5627 10.2249C16.1334 9.9576 15.858 9.5022 15.858 9C15.858 8.4978 16.1334 8.0424 16.5618 7.776C16.8534 7.5933 17.0415 7.4484 17.1756 7.2756C17.3204 7.08845 17.4267 6.87446 17.4884 6.64599C17.55 6.41752 17.5657 6.17909 17.5347 5.9445C17.487 5.5899 17.2764 5.2263 16.8534 4.5C16.4304 3.7737 16.2198 3.411 15.9336 3.1923C15.551 2.90142 15.0691 2.77334 14.5926 2.8359C14.3748 2.8647 14.1543 2.9529 13.8501 3.1131C13.6316 3.23175 13.3868 3.2933 13.1382 3.29204C12.8896 3.29078 12.6453 3.22675 12.4281 3.1059C12.2151 2.98049 12.0377 2.80286 11.9125 2.5898C11.7873 2.37673 11.7185 2.13526 11.7126 1.8882C11.6991 1.5462 11.6667 1.3122 11.5821 1.1115C11.4906 0.892562 11.3569 0.693794 11.1886 0.526552C11.0202 0.35931 10.8206 0.22687 10.6011 0.1368ZM8.99999 11.7C10.503 11.7 11.7207 10.4913 11.7207 9C11.7207 7.5087 10.5021 6.3 8.99999 6.3C7.49699 6.3 6.27929 7.5087 6.27929 9C6.27929 10.4913 7.49789 11.7 8.99999 11.7Z" fill="#DADADA"/>
</svg>
